# xmcd
#
# Track frame offsets:
#	150
#	18352
#	36388
#	57737
#	76373
#	88422
#	106600
#	122975
#	145338
#	164356
#	177829
#	197834
#	211153
#	225552
#	240037
#	253246
#	266803
#	276107
#	294239
#	309819
#	321895
#
# Disc length: 4514 seconds
#
# Revision: 0
# Processed by: cddbd v1.5.2PL0 Copyright (c) Steve Scherf et al.
# Submitted via: audiograbber 1.83.01
#
DISCID=2b11a015
DTITLE=NCM - NCM 054
DYEAR=2008
DGENRE=Country
TTITLE0=We Give You Praise  - Too Much To Gain To Loose
TTITLE1=Home  - Bobby Smith
TTITLE2=I Heard It First On The Radio  - Gaither Vocal Band
TTITLE3=Love Out Loud  - Jaci Velasquez 
TTITLE4=Sweet By And By  - Clint Miller and Golden Street Quartet
TTITLE5=First Love  - Rosalind Anglin
TTITLE6=Like An Eagle  - James Bell
TTITLE7=He Was There All The Time - Gloria Elliott
TTITLE8=Love God Hate Sin  - Dave Clemo
TTITLE9=Inner Cell Phone To Jesus  - Kris Miller
TTITLE10=I Come To You  - Andy Parkinson
TTITLE11=Not The Great I Was  - Claire Schira
TTITLE12=Head High  - Patrick Miller
TTITLE13=Nothing Flows Like Heavently Water  - Claude M Walton
TTITLE14=I Will Not Be Moved  - Natalie Grant
TTITLE15=It Is No Scret - Johnny Cash and Billy Graham Choir
TTITLE16=Blind Man - Verra Cruz
TTITLE17=The Other Side Of The Cross  - Statler Brothers
TTITLE18=My Song Is Love Unknown  - Wes Davis
TTITLE19=Bound For Glory - Gus Eyre
TTITLE20=Dottie Rambo and The Martins
EXTD=
EXTT0=
EXTT1=
EXTT2=
EXTT3=
EXTT4=
EXTT5=
EXTT6=
EXTT7=
EXTT8=
EXTT9=
EXTT10=
EXTT11=
EXTT12=
EXTT13=
EXTT14=
EXTT15=
EXTT16=
EXTT17=
EXTT18=
EXTT19=
EXTT20=
PLAYORDER=
